<svg width="1440" height="800" viewBox="0 0 1440 800" xmlns="http://www.w3.org/2000/svg">
  <defs>
    <linearGradient id="grad1" x1="0%" y1="0%" x2="100%" y2="100%">
      <stop offset="0%" stop-color="#f5f5f5" />
      <stop offset="100%" stop-color="#ffffff" />
    </linearGradient>
  </defs>

  <!-- Background -->
  <rect width="1440" height="800" fill="url(#grad1)" />

  <!-- Abstract Shapes -->
  <circle cx="100" cy="100" r="80" fill="rgba(124, 58, 237, 0.03)" />
  <circle cx="1300" cy="700" r="120" fill="rgba(59, 130, 246, 0.03)" />
  <circle cx="300" cy="600" r="60" fill="rgba(79, 70, 229, 0.02)" />
  <circle cx="1100" cy="200" r="90" fill="rgba(124, 58, 237, 0.02)" />

  <!-- Subtle Lines -->
  <path d="M0 400 L1440 400" stroke="rgba(128, 128, 128, 0.03)" stroke-width="1" />
  <path d="M720 0 L720 800" stroke="rgba(128, 128, 128, 0.03)" stroke-width="1" />

  <!-- Dots Pattern -->
  <g fill="rgba(128, 128, 128, 0.05)">
    <circle cx="200" cy="200" r="2" />
    <circle cx="240" cy="200" r="2" />
    <circle cx="280" cy="200" r="2" />
    <circle cx="200" cy="240" r="2" />
    <circle cx="240" cy="240" r="2" />
    <circle cx="280" cy="240" r="2" />
    <circle cx="200" cy="280" r="2" />
    <circle cx="240" cy="280" r="2" />
    <circle cx="280" cy="280" r="2" />

    <circle cx="1200" cy="200" r="2" />
    <circle cx="1240" cy="200" r="2" />
    <circle cx="1280" cy="200" r="2" />
    <circle cx="1200" cy="240" r="2" />
    <circle cx="1240" cy="240" r="2" />
    <circle cx="1280" cy="240" r="2" />
    <circle cx="1200" cy="280" r="2" />
    <circle cx="1240" cy="280" r="2" />
    <circle cx="1280" cy="280" r="2" />

    <circle cx="200" cy="600" r="2" />
    <circle cx="240" cy="600" r="2" />
    <circle cx="280" cy="600" r="2" />
    <circle cx="200" cy="640" r="2" />
    <circle cx="240" cy="640" r="2" />
    <circle cx="280" cy="640" r="2" />
    <circle cx="200" cy="680" r="2" />
    <circle cx="240" cy="680" r="2" />
    <circle cx="280" cy="680" r="2" />

    <circle cx="1200" cy="600" r="2" />
    <circle cx="1240" cy="600" r="2" />
    <circle cx="1280" cy="600" r="2" />
    <circle cx="1200" cy="640" r="2" />
    <circle cx="1240" cy="640" r="2" />
    <circle cx="1280" cy="640" r="2" />
    <circle cx="1200" cy="680" r="2" />
    <circle cx="1240" cy="680" r="2" />
    <circle cx="1280" cy="680" r="2" />
  </g>

  <!-- Subtle Gradient Blobs -->
  <ellipse cx="400" cy="150" rx="300" ry="150" fill="rgba(124, 58, 237, 0.02)" />
  <ellipse cx="1000" cy="650" rx="350" ry="200" fill="rgba(59, 130, 246, 0.02)" />
</svg>
