<?xml version="1.0" encoding="UTF-8"?>
<svg width="150" height="40" viewBox="0 0 300 72" xmlns="http://www.w3.org/2000/svg">
  <path d="M116.2 0H0v72h116.2V0z" fill="#FA0F00"/>
  <path d="M195.1 0h-78.9v72h78.9V0z" fill="#FA0F00"/>
  <path d="M116.2 0H78.9v72h37.3V0z" fill="#FA0F00"/>
  <path d="M274 0h-78.9v72H274V0z" fill="#FA0F00"/>
  <path d="M195.1 0h-37.3v72h37.3V0z" fill="#FA0F00"/>
  <path d="M274 0h-37.3v72H274V0z" fill="#FA0F00"/>
  <path d="M39.5 43.9l-6.4 15.3H24L44.1 15.8h10.9l20.5 43.4h-9.4l-6.7-15.3H39.5zm17.4-6.9l-6.1-13.5c-1.4-3.1-2.3-5.9-3.2-8.6h-.2c-.9 2.8-1.9 5.6-3.1 8.5l-6 13.6h18.6zM133.3 59.2h-8.5V15.8h8.5v43.4zM153.4 38.7c0-5.6-.1-10.2-.4-14.5h7.5l.5 8.7h.2c2.4-5.1 8-9.9 16-9.9 6.7 0 17.1 4 17.1 20.7v29h-8.5V44.6c0-7.8-2.9-14.4-11.2-14.4-5.8 0-10.3 4.1-11.8 9.1-.4 1.1-.6 2.6-.6 4.1v15.8h-8.5V38.7h-.3zM232.3 15.8l10.3 27.9c1.1 3 2.2 6.6 3 9.3h.2c.9-2.7 1.9-6.2 3.1-9.5l9.4-27.7h9l-12.9 33.7c-6.2 16.3-10.4 24.6-16.3 29.7-4.2 3.7-8.4 5.2-10.6 5.6l-2.2-7.3c2.2-.7 5-2.1 7.6-4.2 2.4-1.9 5.3-5.2 7.3-9.6.4-.9.7-1.6.7-2.1s-.2-1.2-.6-2.3l-17.5-43.5h9.5z" fill="#FFFFFF"/>
</svg>
