<?xml version="1.0" encoding="UTF-8"?>
<svg width="150" height="40" viewBox="0 0 300 159" xmlns="http://www.w3.org/2000/svg">
  <path d="M150 0C67.2 0 0 35.8 0 79.9c0 44.1 67.2 79.9 150 79.9s150-35.8 150-79.9C300 35.8 232.8 0 150 0zm0 142.5c-34.4 0-62.3-28-62.3-62.6s27.9-62.6 62.3-62.6 62.3 28 62.3 62.6-27.9 62.6-62.3 62.6z" fill="#049FD9"/>
  <path d="M150 29.9c-27.5 0-49.8 22.4-49.8 50s22.3 50 49.8 50 49.8-22.4 49.8-50-22.3-50-49.8-50zm0 87.5c-20.6 0-37.4-16.8-37.4-37.5s16.8-37.5 37.4-37.5 37.4 16.8 37.4 37.5-16.8 37.5-37.4 37.5z" fill="#049FD9"/>
  <path d="M150 54.9c-13.8 0-24.9 11.2-24.9 25s11.1 25 24.9 25 24.9-11.2 24.9-25-11.1-25-24.9-25zm0 37.5c-6.9 0-12.5-5.6-12.5-12.5s5.6-12.5 12.5-12.5 12.5 5.6 12.5 12.5-5.6 12.5-12.5 12.5z" fill="#049FD9"/>
</svg>
