<?xml version="1.0" encoding="UTF-8"?>
<svg width="150" height="60" viewBox="0 0 1000 400" xmlns="http://www.w3.org/2000/svg">
  <path d="M0 0v27.367h194.648V0H0zm222.121 0v27.367h277.227C489.449 5.527 478.824 0 468.805 0H222.121zm333.633 0c-9.9 0-20.625 5.527-30.606 27.367h277.031V0H555.754zm305.07 0v27.367H1000V0H860.824zM0 55.08v27.368h194.648V55.08H0zm222.121 0v27.368h309.18c-1.047-12.793-5.332-22.266-12.5-27.368H222.121zm333.633 0c-7.07 5.102-11.454 14.575-12.5 27.368h308.984V55.08H555.754zm305.07 0v27.368H1000V55.08H860.824zM55.656 110.162v27.368h83.336v-27.368H55.656zm222.07 0v27.368h83.336v-27.368h-83.336zm166.524 0v27.368h83.386v-27.368h-83.386zm166.671 0v27.368h83.336v-27.368h-83.336zm166.524 0v27.368h83.386v-27.368h-83.386zM55.656 165.244v27.367h83.336v-27.367H55.656zm222.07 0v27.367h215.625c1.7-17.89-3.734-27.367-19.043-27.367H277.726zm166.524 0c-15.308 0-20.742 9.476-19.043 27.367h215.625v-27.367H444.25zm166.671 0v27.367h83.336v-27.367h-83.336zm166.524 0v27.367h83.386v-27.367h-83.386zM55.656 220.326v27.368h83.336v-27.368H55.656zm222.07 0v27.368h196.582c-8.105-15.234-19.824-22.852-37.304-27.368H277.726zm166.524 0c-17.48 4.516-29.2 12.134-37.305 27.368h196.582v-27.368H444.25zm166.671 0v27.368h83.336v-27.368h-83.336zm166.524 0v27.368h83.386v-27.368h-83.386zM55.656 275.408v27.368h83.336v-27.368H55.656zm222.07 0v27.368h159.278c-1.954-7.91-4.786-15.235-8.496-27.368H277.726zm166.524 0c-3.711 12.133-6.543 19.457-8.496 27.368h159.278v-27.368H444.25zm166.671 0v27.368h83.336v-27.368h-83.336zm166.524 0v27.368h83.386v-27.368h-83.386zM55.656 330.49v27.368h83.336V330.49H55.656zm222.07 0v27.368h83.336V330.49h-83.336zm166.524 0v27.368h83.386V330.49h-83.386zm166.671 0v27.368h83.336V330.49h-83.336zm166.524 0v27.368h83.386V330.49h-83.386zM0 385.572V412.5h194.648v-26.928H0zm222.121 0v26.928h246.621c10.02-5.527 20.645-10.615 30.606-26.928H222.121zm333.633 0c10.02 16.313 20.645 21.401 30.606 26.928h246.464v-26.928H555.754zm305.07 0V412.5H1000v-26.928H860.824z" fill="#1F70C1"/>
</svg>
