<?xml version="1.0" encoding="UTF-8"?>
<svg width="150" height="40" viewBox="0 0 300 75" xmlns="http://www.w3.org/2000/svg">
  <path d="M0 37.5C0 16.8 16.8 0 37.5 0h225C283.2 0 300 16.8 300 37.5S283.2 75 262.5 75h-225C16.8 75 0 58.2 0 37.5z" fill="#0071C5"/>
  <path d="M37.5 15h225c12.4 0 22.5 10.1 22.5 22.5S274.9 60 262.5 60h-225C25.1 60 15 49.9 15 37.5S25.1 15 37.5 15z" fill="#FFFFFF"/>
  <path d="M52.5 45h-15v-7.5h15V45zm0-15h-15v-7.5h15V30zm22.5 15h-15v-7.5h15V45zm0-15h-15v-7.5h15V30zm22.5 15h-15v-7.5h15V45zm0-15h-15v-7.5h15V30zm22.5 15h-15v-7.5h15V45zm0-15h-15v-7.5h15V30zm22.5 15h-15v-7.5h15V45zm0-15h-15v-7.5h15V30zm22.5 15h-15v-7.5h15V45zm0-15h-15v-7.5h15V30zm22.5 15h-15v-7.5h15V45zm0-15h-15v-7.5h15V30zm22.5 15h-15v-7.5h15V45zm0-15h-15v-7.5h15V30z" fill="#0071C5"/>
</svg>
