<?xml version="1.0" encoding="UTF-8"?>
<svg width="150" height="32" viewBox="0 0 150 32" fill="none" xmlns="http://www.w3.org/2000/svg">
  <path d="M15.2 15.2H0V0H15.2V15.2Z" fill="#F25022"/>
  <path d="M32 15.2H16.8V0H32V15.2Z" fill="#7FBA00"/>
  <path d="M15.2 32H0V16.8H15.2V32Z" fill="#00A4EF"/>
  <path d="M32 32H16.8V16.8H32V32Z" fill="#FFB900"/>
  <path d="M70.4 10.4H66.4V22.4H70.4V10.4Z" fill="#737373"/>
  <path d="M68.4 8.8C69.5046 8.8 70.4 7.90457 70.4 6.8C70.4 5.69543 69.5046 4.8 68.4 4.8C67.2954 4.8 66.4 5.69543 66.4 6.8C66.4 7.90457 67.2954 8.8 68.4 8.8Z" fill="#737373"/>
  <path d="M59.2 10.4H55.2V22.4H59.2V16C59.2 14.4 60.4 13.2 62 13.2C63.6 13.2 64.8 14.4 64.8 16V22.4H68.8V15.2C68.8 12.4 66.4 10 63.6 10C61.6 10 60 10.8 59.2 12V10.4Z" fill="#737373"/>
  <path d="M48 10C44.8 10 42.4 12.4 42.4 16.4C42.4 20.4 44.8 22.8 48.8 22.8C50.8 22.8 52.8 22 54 20.8L52 18.8C51.2 19.6 50 20 48.8 20C47.2 20 46 19.2 45.6 17.6H54.8C54.8 17.2 54.8 16.8 54.8 16.4C54.8 12.4 52 10 48 10ZM45.6 15.2C46 13.6 47.2 12.8 48.4 12.8C49.6 12.8 50.8 13.6 51.2 15.2H45.6Z" fill="#737373"/>
  <path d="M84 10C82 10 80.4 10.8 79.6 12V10.4H75.6V22.4H79.6V16C79.6 14.4 80.8 13.2 82.4 13.2C84 13.2 85.2 14.4 85.2 16V22.4H89.2V15.2C89.2 12.4 86.8 10 84 10Z" fill="#737373"/>
  <path d="M96 10C92.8 10 90.4 12.4 90.4 16.4C90.4 20.4 92.8 22.8 96.8 22.8C98.8 22.8 100.8 22 102 20.8L100 18.8C99.2 19.6 98 20 96.8 20C95.2 20 94 19.2 93.6 17.6H102.8C102.8 17.2 102.8 16.8 102.8 16.4C102.8 12.4 100 10 96 10ZM93.6 15.2C94 13.6 95.2 12.8 96.4 12.8C97.6 12.8 98.8 13.6 99.2 15.2H93.6Z" fill="#737373"/>
  <path d="M110.4 10C108.4 10 106.8 10.8 106 12V4.8H102V22.4H106V16C106 14.4 107.2 13.2 108.8 13.2C110.4 13.2 111.6 14.4 111.6 16V22.4H115.6V15.2C115.6 12.4 113.2 10 110.4 10Z" fill="#737373"/>
  <path d="M122.4 10C119.2 10 116.8 12.4 116.8 16.4C116.8 20.4 119.2 22.8 123.2 22.8C125.2 22.8 127.2 22 128.4 20.8L126.4 18.8C125.6 19.6 124.4 20 123.2 20C121.6 20 120.4 19.2 120 17.6H129.2C129.2 17.2 129.2 16.8 129.2 16.4C129.2 12.4 126.4 10 122.4 10ZM120 15.2C120.4 13.6 121.6 12.8 122.8 12.8C124 12.8 125.2 13.6 125.6 15.2H120Z" fill="#737373"/>
  <path d="M136 10C134 10 132.4 10.8 131.6 12V10.4H127.6V27.2H131.6V20.8C132.4 22 134 22.8 136 22.8C139.2 22.8 142 20.4 142 16.4C142 12.4 139.2 10 136 10ZM135.2 20C133.2 20 131.6 18.4 131.6 16.4C131.6 14.4 133.2 12.8 135.2 12.8C137.2 12.8 138.8 14.4 138.8 16.4C138.8 18.4 137.2 20 135.2 20Z" fill="#737373"/>
</svg>
