<?xml version="1.0" encoding="UTF-8"?>
<svg width="150" height="20" viewBox="0 0 400 53" xmlns="http://www.w3.org/2000/svg">
  <path d="M6.1 24.5c0-12.4 9.9-22.3 22.2-22.3 12.3 0 22.2 9.9 22.2 22.3 0 12.4-9.9 22.3-22.2 22.3-12.3 0-22.2-9.9-22.2-22.3zm22.2 14.7c8.1 0 14.6-6.6 14.6-14.7 0-8.1-6.5-14.7-14.6-14.7-8.1 0-14.6 6.6-14.6 14.7 0 8.1 6.5 14.7 14.6 14.7z" fill="#C74634"/>
  <path d="M67.7 2.2h7.6v44.6h-7.6V2.2zm15.4 0h7.6v37h22.3v7.6H83.1V2.2zm35.2 0h7.6v44.6h-7.6V2.2zm15.4 0h31.5v7.6h-11.9v37h-7.6v-37h-11.9V2.2zm38.3 0h32.3v7.6h-24.7v11.1h24.1v7.6h-24.1v11h24.7v7.6h-32.3V2.2zm39.1 0h7.6v37h22.3v7.6h-29.9V2.2zm35.2 0h7.6v37h22.3v7.6h-29.9V2.2zm35.2 0h31.5v7.6h-11.9v37h-7.6v-37h-11.9V2.2zm38.3 0h32.3v7.6h-24.7v11.1h24.1v7.6h-24.1v11h24.7v7.6h-32.3V2.2zm39.1 0h17.8c10.2 0 15.5 7.2 15.5 14.7 0 6.2-3.5 12.3-10.5 14.1l12.3 15.8h-9.3l-11.3-15.2h-6.8v15.2h-7.6V2.2zm17.2 22.3c4.9 0 8.5-3.1 8.5-7.6 0-4.5-3.5-7.1-8.5-7.1h-9.6v14.7h9.6z" fill="#C74634"/>
</svg>
