<?xml version="1.0" encoding="UTF-8"?>
<svg width="150" height="40" viewBox="0 0 200 140" xmlns="http://www.w3.org/2000/svg">
  <path d="M52.6 69.1c2.3-2.4 5.4-3.9 8.9-3.9 4.3 0 8 2.2 10.2 5.5 2-1.2 4.3-1.8 6.8-1.8 7.6 0 13.8 6.2 13.8 13.8 0 7.6-6.2 13.8-13.8 13.8-1.1 0-2.1-.1-3.1-.4-1.7 3.1-5 5.2-8.8 5.2-1.7 0-3.4-.4-4.8-1.2-1.7 4.9-6.3 8.4-11.8 8.4-6.9 0-12.5-5.6-12.5-12.5 0-1.8.4-3.5 1.1-5.1-4.1-1.7-7-5.7-7-10.4 0-6.2 5-11.2 11.2-11.2 3.8 0 7.1 1.9 9.1 4.7l.7-4.9z" fill="#00A1E0"/>
  <path d="M88.5 70.3c2.3-2.4 5.4-3.9 8.9-3.9 4.3 0 8 2.2 10.2 5.5 2-1.2 4.3-1.8 6.8-1.8 7.6 0 13.8 6.2 13.8 13.8 0 7.6-6.2 13.8-13.8 13.8-1.1 0-2.1-.1-3.1-.4-1.7 3.1-5 5.2-8.8 5.2-1.7 0-3.4-.4-4.8-1.2-1.7 4.9-6.3 8.4-11.8 8.4-6.9 0-12.5-5.6-12.5-12.5 0-1.8.4-3.5 1.1-5.1-4.1-1.7-7-5.7-7-10.4 0-6.2 5-11.2 11.2-11.2 3.8 0 7.1 1.9 9.1 4.7l.7-4.9z" fill="#00A1E0"/>
  <path d="M124.4 71.5c2.3-2.4 5.4-3.9 8.9-3.9 4.3 0 8 2.2 10.2 5.5 2-1.2 4.3-1.8 6.8-1.8 7.6 0 13.8 6.2 13.8 13.8 0 7.6-6.2 13.8-13.8 13.8-1.1 0-2.1-.1-3.1-.4-1.7 3.1-5 5.2-8.8 5.2-1.7 0-3.4-.4-4.8-1.2-1.7 4.9-6.3 8.4-11.8 8.4-6.9 0-12.5-5.6-12.5-12.5 0-1.8.4-3.5 1.1-5.1-4.1-1.7-7-5.7-7-10.4 0-6.2 5-11.2 11.2-11.2 3.8 0 7.1 1.9 9.1 4.7l.7-4.9z" fill="#00A1E0"/>
  <path d="M52.6 43.1c2.3-2.4 5.4-3.9 8.9-3.9 4.3 0 8 2.2 10.2 5.5 2-1.2 4.3-1.8 6.8-1.8 7.6 0 13.8 6.2 13.8 13.8 0 7.6-6.2 13.8-13.8 13.8-1.1 0-2.1-.1-3.1-.4-1.7 3.1-5 5.2-8.8 5.2-1.7 0-3.4-.4-4.8-1.2-1.7 4.9-6.3 8.4-11.8 8.4-6.9 0-12.5-5.6-12.5-12.5 0-1.8.4-3.5 1.1-5.1-4.1-1.7-7-5.7-7-10.4 0-6.2 5-11.2 11.2-11.2 3.8 0 7.1 1.9 9.1 4.7l.7-4.9z" fill="#00A1E0"/>
</svg>
